<?xml version="1.0" encoding="UTF-8"?>
<svg width="400px" height="300px" viewBox="0 0 400 300" version="1.1" xmlns="http://www.w3.org/2000/svg" xmlns:xlink="http://www.w3.org/1999/xlink">
    <title>Pantry Hero</title>
    <g stroke="none" stroke-width="1" fill="none" fill-rule="evenodd">
        <rect fill="#FFFFFF" x="0" y="0" width="400" height="300"></rect>
        <g transform="translate(50.000000, 50.000000)">
            <!-- Building -->
            <rect fill="#004E8A" x="75" y="50" width="150" height="150" rx="5"></rect>
            <rect fill="#FFFFFF" x="100" y="75" width="40" height="40" rx="2"></rect>
            <rect fill="#FFFFFF" x="160" y="75" width="40" height="40" rx="2"></rect>
            <rect fill="#FFFFFF" x="130" y="150" width="40" height="50"></rect>
            
            <!-- Food Items -->
            <circle fill="#FF9800" cx="50" cy="180" r="15"></circle>
            <rect fill="#4CAF50" x="30" y="150" width="25" height="25" rx="2"></rect>
            <rect fill="#F44336" x="250" y="160" width="20" height="30" rx="2"></rect>
            <rect fill="#9C27B0" x="240" y="140" width="15" height="15" rx="2"></rect>
            
            <!-- People -->
            <circle fill="#2196F3" cx="40" cy="100" r="10"></circle>
            <rect fill="#2196F3" x="30" y="110" width="20" height="25" rx="5"></rect>
            <circle fill="#FFC107" cx="260" cy="100" r="10"></circle>
            <rect fill="#FFC107" x="250" y="110" width="20" height="25" rx="5"></rect>
            
            <!-- Shopping Basket -->
            <path d="M150,30 L180,30 L190,60 L140,60 L150,30 Z" fill="#E91E63"></path>
            <rect fill="#E91E63" x="145" y="20" width="40" height="10" rx="5"></rect>
        </g>
    </g>
</svg>